HIERARCHY
ROOT Hips
{
	OFFSET 0.000000 0.000000 0.000000
	CHANNELS 6 Xposition Yposition Zposition Xrotation Yrotation Zrotation
	JOINT LeftUpLeg_virtual
	{
		OFFSET 0.000000 0.000000 0.000000
		CHANNELS 3 Xrotation Yrotation Zrotation
		JOINT LeftUpLeg
		{
			OFFSET 11.394100 -6.187798 -0.413800
			CHANNELS 3 Xrotation Yrotation Zrotation
			JOINT LeftLeg
			{
				OFFSET 0.430247 -32.302673 3.732800
				CHANNELS 3 Xrotation Yrotation Zrotation
				JOINT LeftFoot
				{
					OFFSET -0.430247 -48.264931 -6.423300
					CHANNELS 3 Xrotation Yrotation Zrotation
					JOINT LeftToeBase
					{
						OFFSET 4.230900 -16.068199 23.438400
						CHANNELS 3 Xrotation Yrotation Zrotation
						JOINT LeftToe_End
						{
							OFFSET 4.510700 0.695400 19.974600
							CHANNELS 3 Xrotation Yrotation Zrotation
							End Site
							{
								OFFSET 0 0 0
							}
						}
					}
				}
			}
		}
	}
	JOINT RightUpLeg_virtual
	{
		OFFSET 0.000000 0.000000 0.000000
		CHANNELS 3 Xrotation Yrotation Zrotation
		JOINT RightUpLeg
		{
			OFFSET -11.333700 -6.187798 -0.413800
			CHANNELS 3 Xrotation Yrotation Zrotation
			JOINT RightLeg
			{
				OFFSET -0.430392 -32.302628 3.733000
				CHANNELS 3 Xrotation Yrotation Zrotation
				JOINT RightFoot
				{
					OFFSET 0.430392 -48.264973 -6.423500
					CHANNELS 3 Xrotation Yrotation Zrotation
					JOINT RightToeBase
					{
						OFFSET -4.230900 -16.068199 23.438400
						CHANNELS 3 Xrotation Yrotation Zrotation
						JOINT RightToe_End
						{
							OFFSET -4.510700 0.695400 19.974600
							CHANNELS 3 Xrotation Yrotation Zrotation
							End Site
							{
								OFFSET 0 0 0
							}
						}
					}
				}
			}
		}
	}
	JOINT Spine_virtual
	{
		OFFSET 0.000000 0.000000 0.000000
		CHANNELS 3 Xrotation Yrotation Zrotation
		JOINT Spine
		{
			OFFSET -0.002400 12.777504 0.315300
			CHANNELS 3 Xrotation Yrotation Zrotation
			JOINT Spine1
			{
				OFFSET -0.002067 5.816869 0.032633
				CHANNELS 3 Xrotation Yrotation Zrotation
				JOINT Spine1_split
				{
					OFFSET -0.002067 5.816869 0.032633
					CHANNELS 3 Xrotation Yrotation Zrotation
					JOINT Spine2
					{
						OFFSET -0.002067 5.816869 0.032633
						CHANNELS 3 Xrotation Yrotation Zrotation
						JOINT Neck_virtual
						{
							OFFSET 0.000000 0.000000 0.000000
							CHANNELS 3 Xrotation Yrotation Zrotation
							JOINT Neck
							{
								OFFSET -0.003700 21.199493 -0.826900
								CHANNELS 3 Xrotation Yrotation Zrotation
								JOINT Head
								{
									OFFSET 0.000000 20.442200 4.834800
									CHANNELS 3 Xrotation Yrotation Zrotation
									JOINT HeadTop_End
									{
										OFFSET 0.000000 34.668396 4.968400
										CHANNELS 3 Xrotation Yrotation Zrotation
										End Site
										{
											OFFSET 0 0 0
										}
									}
								}
							}
						}
						JOINT LeftShoulder_virtual
						{
							OFFSET 0.000000 0.000000 0.000000
							CHANNELS 3 Xrotation Yrotation Zrotation
							JOINT LeftShoulder
							{
								OFFSET 3.288150 8.794197 -1.372250
								CHANNELS 3 Xrotation Yrotation Zrotation
								JOINT LeftShoulder_split
								{
									OFFSET 3.288150 8.794197 -1.372250
									CHANNELS 3 Xrotation Yrotation Zrotation
									JOINT LeftArm
									{
										OFFSET 11.953299 -2.279007 -0.146200
										CHANNELS 3 Xrotation Yrotation Zrotation
										JOINT LeftForeArm
										{
											OFFSET 18.448900 0.000000 0.000000
											CHANNELS 3 Xrotation Yrotation Zrotation
											JOINT LeftHand
											{
												OFFSET 29.527798 0.000000 0.000000
												CHANNELS 3 Xrotation Yrotation Zrotation
												End Site
												{
													OFFSET 0 0 0
												}
											}
										}
									}
								}
							}
						}
						JOINT RightShoulder_virtual
						{
							OFFSET 0.000000 0.000000 0.000000
							CHANNELS 3 Xrotation Yrotation Zrotation
							JOINT RightShoulder
							{
								OFFSET -3.249400 8.794197 -1.372250
								CHANNELS 3 Xrotation Yrotation Zrotation
								JOINT RightShoulder_split
								{
									OFFSET -3.249400 8.794197 -1.372250
									CHANNELS 3 Xrotation Yrotation Zrotation
									JOINT RightArm
									{
										OFFSET -11.953299 -2.279007 -0.146200
										CHANNELS 3 Xrotation Yrotation Zrotation
										JOINT RightForeArm
										{
											OFFSET -18.448900 0.000000 0.000000
											CHANNELS 3 Xrotation Yrotation Zrotation
											JOINT RightHand
											{
												OFFSET -29.527802 0.000000 0.000000
												CHANNELS 3 Xrotation Yrotation Zrotation
												End Site
												{
													OFFSET 0 0 0
												}
											}
										}
									}
								}
							}
						}
					}
				}
			}
		}
	}
}
MOTION
Frames: 4
Frame Time: 0.03333333
-0.064195 89.157776 35.843430 0.000000 0.000000 0.000000 29.554222 1.072614 -9.735891 -97.916465 0.353484 16.650200 53.770172 6.876099 -6.107322 14.620522 -2.715609 12.425554 -1.647572 1.549608 4.690819 0.000000 0.000000 0.000000 30.831979 2.822735 -11.253637 -10.770805 -30.429394 -17.958160 70.887897 17.770202 -6.964758 14.783861 -31.645103 13.017785 -8.318458 8.849960 4.218023 0.000000 0.000000 0.000000 30.915400 9.191273 -14.504899 4.994938 6.822912 -12.352894 11.690895 9.536165 -4.870648 0.210342 0.247990 0.063477 0.000000 0.000000 0.000000 15.763445 10.592893 -5.600645 -17.851529 0.278221 13.191414 -33.817790 -35.892695 11.762181 0.000000 0.000000 0.000000 12.368655 9.882737 -5.466048 0.127949 3.850719 -1.403949 5.947744 0.350071 -0.233861 7.956014 -40.588317 -31.661506 -14.608470 -30.312263 -7.208533 0.000000 0.000000 0.000000 14.026053 9.795243 -4.746117 -3.036595 13.452262 -12.989620 -1.374264 -0.210258 0.646570 -38.643605 61.659799 62.706061 -16.979683 27.023143 0.687629 0.000000 0.000000 0.000000 
-0.253687 88.575691 37.214516 0.000000 0.000000 0.000000 27.691995 2.793636 -9.433494 -95.561757 1.080085 15.912823 54.729609 7.421070 -5.960735 11.836591 -2.508189 11.843517 -1.138591 1.381969 4.563117 0.000000 0.000000 0.000000 28.989724 4.032024 -10.828468 -13.714223 -28.548485 -17.432622 68.120052 18.515248 -7.492291 12.805578 -29.940049 11.622340 -9.167907 9.213450 -0.667041 0.000000 0.000000 0.000000 29.008367 10.203857 -14.196292 5.077537 4.476791 -12.835914 11.240866 8.533206 -4.522011 0.160858 0.322748 0.020031 0.000000 0.000000 0.000000 15.218298 9.594252 -5.203955 -17.259290 0.647261 12.050066 -34.104770 -31.774839 13.298161 0.000000 0.000000 0.000000 11.660167 8.946205 -5.150215 0.023879 5.541184 -1.143962 6.400457 -0.752127 -0.549664 7.859506 -44.966434 -22.649081 -14.169910 -28.463767 -6.221374 0.000000 0.000000 0.000000 13.522256 8.847769 -4.364965 -3.057453 12.992110 -13.071729 -1.630650 0.306720 0.999467 -32.643731 58.845563 52.999136 -15.511576 26.046276 -2.774471 0.000000 0.000000 0.000000 
-0.252115 88.310623 38.696819 0.000000 0.000000 0.000000 25.849481 3.998940 -9.221973 -92.582893 1.787420 14.777992 55.217735 8.000680 -5.578020 9.081601 -2.175423 11.290015 -0.279990 1.232447 3.972795 0.000000 0.000000 0.000000 26.958014 5.108747 -10.643071 -15.950935 -26.663909 -16.468896 65.019644 19.051452 -7.851547 11.247108 -27.974845 9.945970 -11.812699 9.204027 -3.467541 0.000000 0.000000 0.000000 27.014131 10.901803 -13.970069 5.094912 2.347737 -13.078007 10.932139 7.283732 -4.406293 0.113349 0.341055 -0.009797 0.000000 0.000000 0.000000 14.886811 8.340923 -5.061392 -16.526867 1.232215 10.685589 -33.798819 -27.401128 15.326224 0.000000 0.000000 0.000000 11.263015 7.711080 -5.049239 -0.105862 7.037847 -0.567017 7.034961 -1.671149 -0.728430 5.812632 -49.328579 -14.869452 -13.898091 -26.161365 -5.754502 0.000000 0.000000 0.000000 13.350097 7.635082 -4.241016 -2.733832 12.779608 -13.872321 -2.111466 0.506886 0.960638 -28.179653 55.928560 44.986904 -14.563251 25.045120 -5.617963 0.000000 0.000000 0.000000 
-0.128849 88.424225 40.201511 0.000000 0.000000 0.000000 23.973455 4.762095 -9.264682 -88.975597 2.390990 13.576505 55.498764 8.504648 -4.982697 6.638269 -1.768118 10.851823 0.538340 1.091528 2.970150 0.000000 0.000000 0.000000 24.739478 6.006963 -10.677695 -17.960513 -25.039745 -15.543265 61.572243 19.552948 -8.114390 10.911126 -25.548620 8.852759 -15.878475 8.952118 -4.639266 0.000000 0.000000 0.000000 24.911073 11.366999 -13.921360 5.076100 0.373860 -13.036610 10.798830 5.782923 -4.496779 0.123261 0.297990 -0.014089 0.000000 0.000000 0.000000 14.729078 6.831811 -5.137250 -15.591199 2.000208 9.172659 -32.816317 -22.708533 17.768081 0.000000 0.000000 0.000000 11.243015 6.181618 -5.134800 -0.260392 8.081984 0.304372 7.518566 -2.352839 -0.968374 1.256572 -53.179949 -9.327626 -13.605407 -23.293003 -5.625703 0.000000 0.000000 0.000000 13.470998 6.123274 -4.327880 -2.111489 12.764697 -15.393967 -2.559910 0.606318 0.641163 -24.736782 52.883959 38.018185 -14.312288 24.517616 -7.539878 0.000000 0.000000 0.000000 
